<svg width="28" height="28" viewBox="0 0 28 28" fill="none" xmlns="http://www.w3.org/2000/svg">
<circle cx="13.5" cy="13.5" r="12.5" fill="black"/>
<path fill-rule="evenodd" clip-rule="evenodd" d="M17.5331 8.53187C17.2492 8.19131 16.8642 8 16.4628 8C16.0613 8 15.6764 8.19131 15.3925 8.53187L15.0357 8.96059L17.5336 11.958L17.8898 11.5299C18.0304 11.3612 18.142 11.1609 18.2181 10.9405C18.2942 10.7201 18.3333 10.4838 18.3333 10.2452C18.3333 10.0066 18.2942 9.77039 18.2181 9.54997C18.142 9.32955 18.0304 9.12928 17.8898 8.96059L17.5331 8.53187ZM16.8195 12.8142L14.3217 9.81681L9.73465 15.3217C9.63427 15.4422 9.56415 15.5941 9.53229 15.7601L9.01304 18.4577C8.99369 18.5579 8.99591 18.6623 9.01949 18.7611C9.04306 18.8599 9.08722 18.95 9.1478 19.0226C9.20838 19.0953 9.28339 19.1483 9.36575 19.1766C9.44811 19.2049 9.53512 19.2076 9.61858 19.1844L11.8672 18.5619C12.0053 18.5235 12.1318 18.4394 12.232 18.3191L16.8195 12.8142Z" fill="white"/>
</svg>
