<svg width="80" height="80" viewBox="0 0 80 80" fill="none" xmlns="http://www.w3.org/2000/svg">
<rect width="80" height="80" rx="10" fill="#B1F3B6"/>
<path d="M39.998 41.5508C40.8323 44.0801 42.097 45.8691 43.2412 47.4258C44.8252 49.5808 46.0097 51.1193 46.0098 53.6016C46.0098 56.4896 43.3437 59 40 59C36.6557 59 33.9873 56.491 33.9873 53.6016C33.9874 51.1193 35.1729 49.5808 36.7568 47.4258C37.9009 45.8692 39.1638 44.0798 39.998 41.5508ZM27.0098 23.5518C27.8441 26.0801 29.1071 27.8695 30.251 29.4258C31.8349 31.5808 33.0205 33.1192 33.0205 35.6016C33.0202 38.4894 30.3533 40.999 27.0098 40.999C23.6664 40.9988 21.0003 38.4893 21 35.6016C21 33.1182 22.1856 31.5795 23.7695 29.4248C24.9133 27.8688 26.1755 26.0798 27.0098 23.5518ZM52.9893 23.5518C53.8236 26.0802 55.0866 27.8695 56.2305 29.4258C57.8144 31.5808 59 33.1192 59 35.6016C58.9997 38.4893 56.3336 40.9988 52.9902 40.999C49.6467 40.999 46.9798 38.4894 46.9795 35.6016C46.9795 33.1192 48.1651 31.5808 49.749 29.4258C50.8929 27.8695 52.1549 26.08 52.9893 23.5518Z" stroke="#10B31B" stroke-width="2"/>
</svg>
