<svg width="11" height="20" viewBox="0 0 11 20" fill="none" xmlns="http://www.w3.org/2000/svg">
<path d="M7.71337 9.84456L0.363372 2.22798C0.113372 1.96891 -0.00762791 1.66218 0.000372093 1.30777C0.00837209 0.953371 0.137705 0.64698 0.388372 0.388604C0.639039 0.130227 0.935039 0.000693595 1.27637 2.74873e-06C1.61771 -0.000688098 1.91337 0.128846 2.16337 0.388604L9.83837 8.36788C10.0384 8.57513 10.1884 8.80829 10.2884 9.06736C10.3884 9.32643 10.4384 9.58549 10.4384 9.84456C10.4384 10.1036 10.3884 10.3627 10.2884 10.6218C10.1884 10.8808 10.0384 11.114 9.83837 11.3212L2.13837 19.3005C1.88837 19.5596 1.5967 19.685 1.26337 19.6767C0.930038 19.6684 0.638372 19.5344 0.388372 19.2746C0.138372 19.0149 0.0133721 18.7081 0.0133721 18.3544C0.0133721 18.0007 0.138372 17.6943 0.388372 17.4352L7.71337 9.84456Z" fill="#A2A2A2"/>
</svg>
