<svg width="70" height="70" viewBox="0 0 70 70" fill="none" xmlns="http://www.w3.org/2000/svg">
<path d="M23.8164 46.0694C26.6773 45.3685 28.0721 40.3662 27.4745 37.5128C26.9764 35.135 25.4388 31.3491 23.2381 31.8883C20.3772 32.5891 19.3194 37.2059 19.621 40.1134C19.9021 42.8222 21.6157 46.6085 23.8164 46.0694ZM16.63 48.8219C18.8307 48.2828 19.3332 45.1593 18.8352 42.7815C18.1877 39.6903 15.4808 35.6029 12.6199 36.3038C10.4192 36.8429 9.91671 39.9664 10.4148 42.3442C11.0227 45.2474 13.7296 49.3348 16.63 48.8219ZM31.6883 40.2995C28.8274 41.0004 27.7436 45.7665 28.391 48.8576C28.8393 50.9977 30.1678 52.9225 32.1484 52.4373C35.0093 51.7365 36.0932 46.9704 35.4457 43.8792C34.9975 41.7392 33.4489 39.8682 31.6883 40.2995ZM13.3153 52.4854C12.6857 49.3817 9.57587 45.6488 6.89025 46.3271C4.87604 46.8359 4.41688 49.2112 4.85276 51.3599C5.48235 54.4635 8.59219 58.1965 11.2778 57.5182C13.292 57.0094 13.7512 54.6341 13.3153 52.4854ZM21.2245 51.9949C16.8231 53.0731 11.8903 59.4292 12.986 64.6603C13.4841 67.0381 15.174 67.3745 16.9345 66.9432C19.5753 66.2962 21.1558 65.47 23.5765 64.877C25.7772 64.3378 28.1577 64.1937 30.5785 63.6006C32.339 63.1693 34.2199 62.2082 33.672 59.5926C32.5763 54.3615 25.6259 50.9166 21.2245 51.9949Z" fill="#5F89CD" stroke="#5F89CD"/>
<path d="M54.6931 18.9306C57.5541 19.6315 60.806 15.7675 61.4035 12.9142C61.9015 10.5364 62.0224 6.40345 59.8217 5.86432C56.9608 5.16345 54.1667 8.83656 53.2805 11.6008C52.4547 14.1762 52.4924 18.3915 54.6931 18.9306ZM47.1115 18.0652C49.3122 18.6044 51.0102 16.02 51.5082 13.6422C52.1556 10.551 51.3415 5.60102 48.4806 4.90015C46.2799 4.36102 44.5819 6.94544 44.0839 9.32324C43.4757 12.2263 44.2898 17.1763 47.1115 18.0652ZM64.0957 17.3927C61.2348 16.6918 58.3577 20.4876 57.7103 23.5787C57.2621 25.7187 57.6941 28.0749 59.6747 28.5601C62.5356 29.261 65.4127 25.4653 66.0601 22.3741C66.5083 20.2341 65.8563 17.824 64.0957 17.3927ZM42.6606 19.8263C43.3291 16.7321 42.0102 11.9142 39.3164 11.2747C37.2961 10.7951 35.9353 12.7245 35.4725 14.8666C34.804 17.9607 36.1229 22.7786 38.8167 23.4181C40.837 23.8978 42.1978 21.9683 42.6606 19.8263ZM49.9933 23.0697C45.5919 21.9914 38.608 25.4281 37.5124 30.6592C37.0144 33.037 38.4053 34.1281 40.1659 34.5594C42.8067 35.2064 44.5621 35.1974 46.9829 35.7904C49.1836 36.3295 51.3892 37.3089 53.81 37.9019C55.5705 38.3333 57.6507 38.3425 58.1985 35.727C59.2941 30.4958 54.3947 24.148 49.9933 23.0697Z" fill="#5F89CD" stroke="#5F89CD"/>
<path d="M51.2339 64.1069L66.0317 43.7216C66.3809 43.2405 66.7883 43 67.2539 43C67.7196 43 68.127 43.2405 68.4762 43.7216C68.8254 44.2027 69 44.7743 69 45.4366C69 46.0989 68.8254 46.6698 68.4762 47.1492L52.4562 69.2784C52.107 69.7595 51.6995 70 51.2339 70C50.7683 70 50.3609 69.7595 50.0117 69.2784L42.5037 58.9354C42.1545 58.4543 41.9868 57.8835 42.0008 57.2228C42.0148 56.5621 42.1969 55.9905 42.5473 55.5078C42.8977 55.0251 43.3127 54.7846 43.7923 54.7862C44.2718 54.7878 44.6862 55.0283 45.0354 55.5078L51.2339 64.1069Z" fill="#5F89CD"/>
</svg>
