<svg width="20" height="20" viewBox="0 0 20 20" fill="none" xmlns="http://www.w3.org/2000/svg">
<g clip-path="url(#clip0_2449_72)">
<path d="M7.49998 13.3333C7.49998 13.5543 7.41218 13.7663 7.2559 13.9226C7.09962 14.0789 6.88766 14.1667 6.66665 14.1667C6.44563 14.1667 6.23367 14.0789 6.07739 13.9226C5.92111 13.7663 5.83331 13.5543 5.83331 13.3333C5.83331 13.1123 5.92111 12.9004 6.07739 12.7441C6.23367 12.5878 6.44563 12.5 6.66665 12.5C6.88766 12.5 7.09962 12.5878 7.2559 12.7441C7.41218 12.9004 7.49998 13.1123 7.49998 13.3333ZM10.8333 13.3333C10.8333 13.5543 10.7455 13.7663 10.5892 13.9226C10.433 14.0789 10.221 14.1667 9.99998 14.1667C9.77897 14.1667 9.567 14.0789 9.41072 13.9226C9.25444 13.7663 9.16665 13.5543 9.16665 13.3333C9.16665 13.1123 9.25444 12.9004 9.41072 12.7441C9.567 12.5878 9.77897 12.5 9.99998 12.5C10.221 12.5 10.433 12.5878 10.5892 12.7441C10.7455 12.9004 10.8333 13.1123 10.8333 13.3333ZM13.3333 14.1667C13.5543 14.1667 13.7663 14.0789 13.9226 13.9226C14.0788 13.7663 14.1666 13.5543 14.1666 13.3333C14.1666 13.1123 14.0788 12.9004 13.9226 12.7441C13.7663 12.5878 13.5543 12.5 13.3333 12.5C13.1123 12.5 12.9003 12.5878 12.7441 12.7441C12.5878 12.9004 12.5 13.1123 12.5 13.3333C12.5 13.5543 12.5878 13.7663 12.7441 13.9226C12.9003 14.0789 13.1123 14.1667 13.3333 14.1667Z" fill="#B8BCC6" stroke="#A8AFB9" stroke-width="0.5"/>
<path fill-rule="evenodd" clip-rule="evenodd" d="M4.34884 6.65116V7.74205C4.15907 7.75488 3.97991 7.77274 3.81135 7.79563C3.05786 7.89609 2.42326 8.11377 1.91926 8.61693C1.41526 9.12093 1.19926 9.75553 1.09795 10.509C1 11.2349 1 12.1583 1 13.3028V13.3949C1 14.5393 1 15.4628 1.09795 16.1887C1.19842 16.9421 1.41609 17.5767 1.91926 18.0807C2.42326 18.5847 3.05786 18.8007 3.81135 18.9029C4.53721 19 5.46065 19 6.60512 19H13.3949C14.5393 19 15.4628 19 16.1887 18.9029C16.9421 18.8007 17.5767 18.5847 18.0807 18.0807C18.5847 17.5767 18.8007 16.9421 18.9029 16.1887C19 15.4628 19 14.5393 19 13.3949V13.3028C19 12.1583 19 11.2349 18.9029 10.509C18.8007 9.75553 18.5847 9.12093 18.0807 8.61693C17.5767 8.11293 16.9421 7.89693 16.1887 7.79563C16.0101 7.77199 15.8309 7.75412 15.6512 7.74205V6.65116C15.6512 5.15238 15.0558 3.71499 13.996 2.65519C12.9362 1.59539 11.4988 1 10 1C8.50122 1 7.06382 1.59539 6.00402 2.65519C4.94423 3.71499 4.34884 5.15238 4.34884 6.65116ZM10 2.25581C8.83428 2.25581 7.71631 2.71889 6.89202 3.54318C6.06773 4.36747 5.60465 5.48544 5.60465 6.65116V7.70019C5.91721 7.69795 6.2507 7.69712 6.60512 7.69767H13.3949C13.7493 7.69767 14.0828 7.69851 14.3953 7.70019V6.65116C14.3953 4.22326 12.4279 2.25581 10 2.25581ZM3.97879 9.03972C3.36428 9.1226 3.03944 9.27414 2.80753 9.50521C2.57563 9.73712 2.42493 10.062 2.34205 10.6773C2.25749 11.3094 2.25581 12.1474 2.25581 13.3488C2.25581 14.5502 2.25749 15.3883 2.34205 16.0212C2.42493 16.6357 2.57647 16.9606 2.80753 17.1925C3.03944 17.4244 3.36428 17.5751 3.97963 17.658C4.61088 17.7425 5.44977 17.7442 6.65116 17.7442H13.3488C14.5502 17.7442 15.3883 17.7425 16.0212 17.658C16.6357 17.5751 16.9606 17.4235 17.1925 17.1925C17.4244 16.9606 17.5751 16.6357 17.658 16.0204C17.7425 15.3883 17.7442 14.5502 17.7442 13.3488C17.7442 12.1474 17.7425 11.3086 17.658 10.6765C17.5751 10.062 17.4235 9.73712 17.1925 9.50521C16.9606 9.2733 16.6357 9.1226 16.0204 9.03972C15.3883 8.95516 14.5502 8.95349 13.3488 8.95349H6.65116C5.44977 8.95349 4.61088 8.95516 3.97879 9.03972Z" fill="#A8AFB9" stroke="#A8AFB9" stroke-width="0.5"/>
</g>
<defs>
<clipPath id="clip0_2449_72">
<rect width="20" height="20" fill="white"/>
</clipPath>
</defs>
</svg>
