<svg width="20" height="20" viewBox="0 0 20 20" fill="none" xmlns="http://www.w3.org/2000/svg">
<path d="M17.5 3C18.6024 3 19.5 3.89763 19.5 5V17.5C19.5 18.6024 18.6024 19.5 17.5 19.5H2.5C1.39763 19.5 0.5 18.6024 0.5 17.5V5C0.5 3.89763 1.39763 3 2.5 3C2.52861 3 2.56101 3.01277 2.58887 3.05859C2.61855 3.10767 2.6242 3.16773 2.60352 3.21777C2.21651 4.15284 2 5.17602 2 6.25C2 10.6617 5.58831 14.25 10 14.25C14.4117 14.25 18 10.6617 18 6.25C18 5.17602 17.7835 4.15284 17.3965 3.21777C17.3758 3.16773 17.3814 3.10767 17.4111 3.05859C17.439 3.01277 17.4714 3 17.5 3ZM10 0.5C13.1758 0.5 15.75 3.07419 15.75 6.25C15.75 9.42581 13.1758 12 10 12C6.82419 12 4.25 9.42581 4.25 6.25C4.25 3.07419 6.82419 0.5 10 0.5ZM12.3174 2.71582C11.7469 2.47018 11.0859 2.73534 10.8408 3.30664L9.78613 5.7666C9.71297 5.93734 9.51293 6.08317 9.14746 6.24902C8.43542 6.57223 7.9375 7.28907 7.9375 8.125C7.9375 9.26403 8.86097 10.1875 10 10.1875C11.139 10.1875 12.0625 9.26403 12.0625 8.125C12.0625 7.88669 12.0202 7.65882 11.9443 7.44727C11.8105 7.07415 11.7793 6.83098 11.8516 6.66211L12.9092 4.19238H12.9102C13.1541 3.62196 12.8893 2.96051 12.3184 2.71582H12.3174Z" fill="white" stroke="#A2A2A2"/>
</svg>
