<svg width="24" height="24" viewBox="0 0 24 24" fill="none" xmlns="http://www.w3.org/2000/svg">
<path fill-rule="evenodd" clip-rule="evenodd" d="M11.8445 21.6618C8.15273 21.6618 5 21.0873 5 18.7866C5 16.4858 8.13273 14.3618 11.8445 14.3618C15.5364 14.3618 18.6891 16.4652 18.6891 18.766C18.6891 21.0658 15.5564 21.6618 11.8445 21.6618Z" stroke="#A2A2A2" stroke-width="1.5" stroke-linecap="round" stroke-linejoin="round"/>
<path fill-rule="evenodd" clip-rule="evenodd" d="M11.8372 11.1736C14.26 11.1736 16.2236 9.2099 16.2236 6.78718C16.2236 4.36445 14.26 2.3999 11.8372 2.3999C9.41452 2.3999 7.44998 4.36445 7.44998 6.78718C7.4418 9.20172 9.3918 11.1654 11.8063 11.1736C11.8172 11.1736 11.8272 11.1736 11.8372 11.1736Z" stroke="#A2A2A2" stroke-width="1.5" stroke-linecap="round" stroke-linejoin="round"/>
</svg>
