<svg width="9" height="10" viewBox="0 0 9 10" fill="none" xmlns="http://www.w3.org/2000/svg">
<path d="M5.40581 3.64173C6.21135 3.41371 6.50257 2.10947 6.26894 1.3892C6.07425 0.788966 5.5506 -0.154052 4.93096 0.0213459C4.12542 0.249363 3.92252 1.44918 4.0724 2.18832C4.21204 2.87699 4.78617 3.81712 5.40581 3.64173ZM3.40398 4.46844C4.02362 4.29304 4.09974 3.48491 3.90505 2.88468C3.65195 2.10439 2.78627 1.10403 1.98073 1.33205C1.36109 1.50745 1.28497 2.31557 1.47966 2.9158C1.71732 3.64865 2.583 4.64901 3.40398 4.46844ZM7.53862 2.03097C6.73309 2.25899 6.52595 3.49747 6.77906 4.27777C6.95428 4.81798 7.37738 5.28816 7.93506 5.1303C8.7406 4.90228 8.94773 3.6638 8.69463 2.8835C8.51941 2.3433 8.03434 1.89066 7.53862 2.03097ZM2.53278 5.46256C2.28453 4.67875 1.31097 3.77598 0.555233 3.99526C-0.0115719 4.15972 -0.091561 4.77557 0.080304 5.3182C0.328553 6.10201 1.30211 7.00478 2.05785 6.7855C2.62465 6.62104 2.70464 6.00519 2.53278 5.46256ZM4.79128 5.20262C3.55199 5.55342 2.27521 7.26429 2.70354 8.5848C2.89823 9.18503 3.3904 9.24242 3.88611 9.1021C4.62969 8.89162 5.06512 8.65327 5.74673 8.46033C6.36637 8.28494 7.04621 8.20759 7.72782 8.01465C8.22354 7.87434 8.74223 7.59635 8.52806 6.93609C8.09974 5.61559 6.03057 4.85182 4.79128 5.20262Z" fill="#43A3F1"/>
</svg>
