<svg width="24" height="24" viewBox="0 0 24 24" fill="none" xmlns="http://www.w3.org/2000/svg">
<path d="M16 6C16 4.114 16 3.172 15.414 2.586C14.828 2 13.886 2 12 2C10.114 2 9.172 2 8.586 2.586C8 3.172 8 4.114 8 6M2 14C2 10.229 2 8.343 3.172 7.172C4.344 6.001 6.229 6 10 6H14C17.771 6 19.657 6 20.828 7.172C21.999 8.344 22 10.229 22 14C22 17.771 22 19.657 20.828 20.828C19.656 21.999 17.771 22 14 22H10C6.229 22 4.343 22 3.172 20.828C2.001 19.656 2 17.771 2 14Z" stroke="#A8AFB9" stroke-width="1.5"/>
<path d="M15 14H12M12 14H9M12 14V11M12 14V17" stroke="#A8AFB9" stroke-width="1.5" stroke-linecap="round"/>
</svg>
