<svg width="20" height="20" viewBox="0 0 20 20" fill="none" xmlns="http://www.w3.org/2000/svg">
<mask id="path-1-inside-1_2172_79" fill="white">
<path d="M15.5823 19.4918C15.5762 19.4901 15.5698 19.4905 15.5635 19.4911C15.5579 19.4917 15.5523 19.4928 15.5469 19.4943L15.4514 19.5209C15.4437 19.523 15.4358 19.5245 15.4279 19.5254C15.4143 19.527 15.4005 19.5267 15.3869 19.5245L15.3846 19.5241L15.2694 19.492C15.2543 19.4893 15.2426 19.4901 15.2341 19.4944C15.2315 19.4957 15.2296 19.4978 15.2279 19.5001C15.2253 19.5038 15.2237 19.5082 15.2234 19.5127L15.197 19.8885C15.1965 19.8948 15.1976 19.9012 15.2002 19.907C15.203 19.9132 15.2073 19.9186 15.2128 19.9226L15.2154 19.9246C15.2189 19.9271 15.2227 19.9292 15.2267 19.9308L15.3802 19.9925C15.3864 19.995 15.3928 19.9968 15.3994 19.9978L15.4014 19.9981C15.4096 19.9993 15.418 19.9991 15.4262 19.9976C15.4309 19.9967 15.4356 19.9954 15.4401 19.9936L15.5947 19.9314C15.5997 19.9294 15.6043 19.9268 15.6085 19.9236L15.6144 19.9192C15.6191 19.9156 15.6228 19.9109 15.6251 19.9054C15.6271 19.9006 15.6279 19.8955 15.6276 19.8903L15.6021 19.5286C15.601 19.5141 15.5983 19.4973 15.5846 19.4925C15.5838 19.4923 15.583 19.492 15.5823 19.4918ZM16.0145 19.3893C16.0072 19.3867 15.9992 19.3869 15.9914 19.3876C15.9852 19.3881 15.979 19.3893 15.9729 19.391L15.6866 19.4723C15.6834 19.4732 15.6802 19.4745 15.6772 19.4762L15.6707 19.4799C15.6673 19.4818 15.6645 19.4847 15.6628 19.4883C15.6614 19.4913 15.6607 19.4947 15.661 19.4981L15.6893 19.8798C15.6896 19.8846 15.6913 19.8892 15.6942 19.8931C15.6967 19.8964 15.6998 19.8991 15.7035 19.9009L15.7071 19.9027C15.7096 19.9039 15.7123 19.9049 15.7151 19.9057L16.0372 19.9898C16.0545 19.9924 16.0684 19.9911 16.0788 19.9859C16.0826 19.984 16.0853 19.9805 16.0872 19.9767C16.0895 19.9721 16.0905 19.967 16.09 19.9618L16.0379 19.4307C16.0364 19.4149 16.0328 19.3971 16.0183 19.3907C16.0171 19.3902 16.0158 19.3897 16.0145 19.3893ZM14.8424 19.3884C14.8353 19.3859 14.8267 19.3852 14.8185 19.3862C14.8123 19.387 14.8067 19.3888 14.8023 19.3913C14.7997 19.3928 14.7977 19.3951 14.7958 19.3975C14.7913 19.4035 14.7884 19.4107 14.7877 19.4183L14.7352 19.9543C14.7341 19.9645 14.7329 19.9763 14.7408 19.9829C14.7425 19.9844 14.7446 19.9858 14.7471 19.987C14.756 19.9914 14.7663 19.9913 14.7762 19.9906C14.7824 19.9901 14.7887 19.989 14.7947 19.9875L15.1081 19.9056C15.1106 19.9049 15.1131 19.904 15.1155 19.9029L15.1223 19.8999C15.1261 19.8982 15.1293 19.8954 15.1316 19.8918C15.1336 19.8888 15.1348 19.8852 15.135 19.8816L15.1619 19.4981C15.1621 19.4947 15.1615 19.4913 15.1601 19.4882C15.1583 19.4841 15.1552 19.4807 15.1514 19.4785L15.1454 19.4752C15.1426 19.4736 15.1395 19.4723 15.1363 19.4714L14.8424 19.3884Z"/>
</mask>
<path d="M15.5823 19.4918C15.5762 19.4901 15.5698 19.4905 15.5635 19.4911C15.5579 19.4917 15.5523 19.4928 15.5469 19.4943L15.4514 19.5209C15.4437 19.523 15.4358 19.5245 15.4279 19.5254C15.4143 19.527 15.4005 19.5267 15.3869 19.5245L15.3846 19.5241L15.2694 19.492C15.2543 19.4893 15.2426 19.4901 15.2341 19.4944C15.2315 19.4957 15.2296 19.4978 15.2279 19.5001C15.2253 19.5038 15.2237 19.5082 15.2234 19.5127L15.197 19.8885C15.1965 19.8948 15.1976 19.9012 15.2002 19.907C15.203 19.9132 15.2073 19.9186 15.2128 19.9226L15.2154 19.9246C15.2189 19.9271 15.2227 19.9292 15.2267 19.9308L15.3802 19.9925C15.3864 19.995 15.3928 19.9968 15.3994 19.9978L15.4014 19.9981C15.4096 19.9993 15.418 19.9991 15.4262 19.9976C15.4309 19.9967 15.4356 19.9954 15.4401 19.9936L15.5947 19.9314C15.5997 19.9294 15.6043 19.9268 15.6085 19.9236L15.6144 19.9192C15.6191 19.9156 15.6228 19.9109 15.6251 19.9054C15.6271 19.9006 15.6279 19.8955 15.6276 19.8903L15.6021 19.5286C15.601 19.5141 15.5983 19.4973 15.5846 19.4925C15.5838 19.4923 15.583 19.492 15.5823 19.4918ZM16.0145 19.3893C16.0072 19.3867 15.9992 19.3869 15.9914 19.3876C15.9852 19.3881 15.979 19.3893 15.9729 19.391L15.6866 19.4723C15.6834 19.4732 15.6802 19.4745 15.6772 19.4762L15.6707 19.4799C15.6673 19.4818 15.6645 19.4847 15.6628 19.4883C15.6614 19.4913 15.6607 19.4947 15.661 19.4981L15.6893 19.8798C15.6896 19.8846 15.6913 19.8892 15.6942 19.8931C15.6967 19.8964 15.6998 19.8991 15.7035 19.9009L15.7071 19.9027C15.7096 19.9039 15.7123 19.9049 15.7151 19.9057L16.0372 19.9898C16.0545 19.9924 16.0684 19.9911 16.0788 19.9859C16.0826 19.984 16.0853 19.9805 16.0872 19.9767C16.0895 19.9721 16.0905 19.967 16.09 19.9618L16.0379 19.4307C16.0364 19.4149 16.0328 19.3971 16.0183 19.3907C16.0171 19.3902 16.0158 19.3897 16.0145 19.3893ZM14.8424 19.3884C14.8353 19.3859 14.8267 19.3852 14.8185 19.3862C14.8123 19.387 14.8067 19.3888 14.8023 19.3913C14.7997 19.3928 14.7977 19.3951 14.7958 19.3975C14.7913 19.4035 14.7884 19.4107 14.7877 19.4183L14.7352 19.9543C14.7341 19.9645 14.7329 19.9763 14.7408 19.9829C14.7425 19.9844 14.7446 19.9858 14.7471 19.987C14.756 19.9914 14.7663 19.9913 14.7762 19.9906C14.7824 19.9901 14.7887 19.989 14.7947 19.9875L15.1081 19.9056C15.1106 19.9049 15.1131 19.904 15.1155 19.9029L15.1223 19.8999C15.1261 19.8982 15.1293 19.8954 15.1316 19.8918C15.1336 19.8888 15.1348 19.8852 15.135 19.8816L15.1619 19.4981C15.1621 19.4947 15.1615 19.4913 15.1601 19.4882C15.1583 19.4841 15.1552 19.4807 15.1514 19.4785L15.1454 19.4752C15.1426 19.4736 15.1395 19.4723 15.1363 19.4714L14.8424 19.3884Z" fill="#D2908F"/>
<path d="M15.3846 19.5241L15.1164 20.4875L15.1702 20.5024L15.2253 20.5113L15.3846 19.5241ZM15.2694 19.492L15.5376 18.5286L15.4909 18.5156L15.4432 18.5072L15.2694 19.492ZM16.0372 19.9898L15.7844 20.9574L15.8367 20.971L15.8902 20.979L16.0372 19.9898ZM14.8424 19.3884L14.5186 20.3345L14.5444 20.3433L14.5706 20.3508L14.8424 19.3884ZM15.1454 19.4752L14.6537 20.3459L15.1454 19.4752ZM15.1363 19.4714L14.8646 20.4338L15.1363 19.4714ZM15.1601 19.4882L16.0745 19.0834L15.1601 19.4882ZM15.1514 19.4785L15.6431 18.6078L15.1514 19.4785ZM15.1619 19.4981L14.1643 19.4282L15.1619 19.4981ZM15.1316 19.8918L14.2908 19.3505L15.1316 19.8918ZM15.135 19.8816L14.1374 19.8118L15.135 19.8816ZM15.1081 19.9056L14.8552 18.9381L15.1081 19.9056ZM14.7762 19.9906L14.701 18.9934L14.7762 19.9906ZM14.7947 19.9875L14.5419 19.0199L14.7947 19.9875ZM14.7471 19.987L14.3016 20.8823L14.7471 19.987ZM14.7408 19.9829L15.3875 19.2202L14.7408 19.9829ZM14.7958 19.3975L15.5924 20.002L14.7958 19.3975ZM16.0379 19.4307L17.0332 19.3331L16.0379 19.4307ZM16.0183 19.3907L16.4204 18.4751L16.0183 19.3907ZM16.0872 19.9767L16.9795 20.4281L16.0872 19.9767ZM16.09 19.9618L15.0948 20.0594L16.09 19.9618ZM16.0788 19.9859L16.5266 20.88L16.0788 19.9859ZM15.7071 19.9027L15.2641 20.7992L15.7071 19.9027ZM15.7151 19.9057L15.4622 20.8732L15.7151 19.9057ZM15.6628 19.4883L14.7623 19.0535L15.6628 19.4883ZM15.661 19.4981L14.6637 19.572L15.661 19.4981ZM15.6707 19.4799L15.1789 18.6091L15.6707 19.4799ZM15.6866 19.4723L15.9598 20.4342L15.6866 19.4723ZM15.6772 19.4762L16.169 20.3469L15.6772 19.4762ZM16.0145 19.3893L15.6888 20.3348L16.0145 19.3893ZM15.6251 19.9054L16.5482 20.29L15.6251 19.9054ZM15.6276 19.8903L16.6251 19.82L15.6276 19.8903ZM15.6144 19.9192L16.216 20.718L15.6144 19.9192ZM15.5947 19.9314L15.2219 19.0035L15.5947 19.9314ZM15.6085 19.9236L16.2101 20.7224L15.6085 19.9236ZM15.4262 19.9976L15.2412 19.0149L15.4262 19.9976ZM15.4401 19.9936L15.0672 19.0657L15.4401 19.9936ZM15.2154 19.9246L15.8073 19.1185L15.2154 19.9246ZM15.2267 19.9308L14.8538 20.8587L15.2267 19.9308ZM15.2002 19.907L16.1146 19.5022L15.2002 19.907ZM15.2128 19.9226L14.621 20.7287L15.2128 19.9226ZM15.197 19.8885L14.1994 19.8184L15.197 19.8885ZM15.2279 19.5001L16.044 20.078L15.2279 19.5001ZM15.2234 19.5127L14.2259 19.4425L15.2234 19.5127ZM15.4279 19.5254L15.5401 20.5191L15.4279 19.5254ZM15.4514 19.5209L15.1832 18.5575L15.4514 19.5209ZM15.2341 19.4944L15.6811 20.3889L15.2341 19.4944ZM15.4014 19.9981L15.2525 20.9869L15.4014 19.9981ZM15.6942 19.8931L16.4989 19.2994L15.6942 19.8931ZM15.7035 19.9009L15.2605 20.7974L15.7035 19.9009ZM15.5635 19.4911L15.4613 18.4964L15.5635 19.4911ZM15.5469 19.4943L15.2787 18.5309L15.5469 19.4943ZM15.3802 19.9925L15.0073 20.9204L15.3802 19.9925ZM15.3994 19.9978L15.2505 20.9866L15.3994 19.9978ZM15.6893 19.8798L14.692 19.9537L15.6893 19.8798ZM15.5823 19.4918L15.8521 18.5289L15.5823 19.4918ZM15.5469 19.4943L15.2787 18.5309L15.1832 18.5575L15.4514 19.5209L15.7196 20.4842L15.8151 20.4576L15.5469 19.4943ZM15.3869 19.5245L15.5462 18.5372L15.5439 18.5369L15.3846 19.5241L15.2253 20.5113L15.2277 20.5117L15.3869 19.5245ZM15.3846 19.5241L15.6528 18.5607L15.5376 18.5286L15.2694 19.492L15.0011 20.4554L15.1164 20.4875L15.3846 19.5241ZM15.2694 19.492L15.4432 18.5072C15.3349 18.4881 15.0723 18.4573 14.787 18.5999L15.2341 19.4944L15.6811 20.3889C15.4128 20.523 15.1738 20.4906 15.0956 20.4768L15.2694 19.492ZM15.2234 19.5127L14.2259 19.4425L14.1994 19.8184L15.197 19.8885L16.1945 19.9587L16.2209 19.5829L15.2234 19.5127ZM15.2128 19.9226L14.621 20.7287L14.6236 20.7307L15.2154 19.9246L15.8073 19.1185L15.8046 19.1166L15.2128 19.9226ZM15.2267 19.9308L14.8538 20.8587L15.0073 20.9204L15.3802 19.9925L15.753 19.0646L15.5995 19.003L15.2267 19.9308ZM15.3994 19.9978L15.2505 20.9866L15.2525 20.9869L15.4014 19.9981L15.5503 19.0092L15.5483 19.0089L15.3994 19.9978ZM15.4401 19.9936L15.8129 20.9214L15.9676 20.8593L15.5947 19.9314L15.2219 19.0035L15.0672 19.0657L15.4401 19.9936ZM15.6085 19.9236L16.2101 20.7224L16.216 20.718L15.6144 19.9192L15.0129 19.1204L15.007 19.1248L15.6085 19.9236ZM15.6276 19.8903L16.6251 19.82L16.5996 19.4583L15.6021 19.5286L14.6045 19.5989L14.63 19.9606L15.6276 19.8903ZM15.5846 19.4925L15.9144 18.5485C15.8931 18.5411 15.8723 18.5346 15.8521 18.5289L15.5823 19.4918L15.3124 20.4547C15.2938 20.4495 15.2745 20.4435 15.2547 20.4365L15.5846 19.4925ZM15.9729 19.391L15.6998 18.429L15.4135 18.5103L15.6866 19.4723L15.9598 20.4342L16.2461 20.353L15.9729 19.391ZM15.6772 19.4762L15.1854 18.6055L15.1789 18.6091L15.6707 19.4799L16.1625 20.3506L16.169 20.3469L15.6772 19.4762ZM15.661 19.4981L14.6637 19.572L14.692 19.9537L15.6893 19.8798L16.6865 19.8058L16.6582 19.4242L15.661 19.4981ZM15.7035 19.9009L15.2605 20.7974L15.2641 20.7992L15.7071 19.9027L16.1501 19.0062L16.1465 19.0044L15.7035 19.9009ZM15.7151 19.9057L15.4622 20.8732L15.7844 20.9574L16.0372 19.9898L16.29 19.0223L15.9679 18.9382L15.7151 19.9057ZM16.0372 19.9898L15.8902 20.979C16.0145 20.9975 16.2612 21.0129 16.5266 20.88L16.0788 19.9859L15.631 19.0918C15.8755 18.9693 16.0945 18.9874 16.1842 19.0007L16.0372 19.9898ZM16.09 19.9618L17.0852 19.8642L17.0332 19.3331L16.0379 19.4307L15.0427 19.5283L15.0948 20.0594L16.09 19.9618ZM16.0183 19.3907L16.4204 18.4751C16.3929 18.4631 16.3661 18.4527 16.3402 18.4438L16.0145 19.3893L15.6888 20.3348C15.6655 20.3267 15.6412 20.3173 15.6161 20.3063L16.0183 19.3907ZM14.8424 19.3884L15.1662 18.4423C15.0026 18.3863 14.8395 18.3757 14.694 18.394L14.8185 19.3862L14.9431 20.3784C14.8139 20.3946 14.6679 20.3856 14.5186 20.3345L14.8424 19.3884ZM14.8185 19.3862L14.694 18.394C14.5821 18.408 14.4418 18.444 14.299 18.5272L14.8023 19.3913L15.3055 20.2554C15.1716 20.3335 15.0425 20.3659 14.9431 20.3784L14.8185 19.3862ZM14.7877 19.4183L13.7925 19.3207L13.7399 19.8567L14.7352 19.9543L15.7304 20.0519L15.7829 19.5159L14.7877 19.4183ZM14.7408 19.9829L14.094 20.7457C14.1665 20.8071 14.2386 20.851 14.3016 20.8823L14.7471 19.987L15.1926 19.0917C15.2507 19.1206 15.3186 19.1618 15.3875 19.2202L14.7408 19.9829ZM14.7947 19.9875L15.0476 20.955L15.3609 20.8731L15.1081 19.9056L14.8552 18.9381L14.5419 19.0199L14.7947 19.9875ZM15.1155 19.9029L15.5272 20.8143L15.534 20.8112L15.1223 19.8999L14.7106 18.9886L14.7038 18.9916L15.1155 19.9029ZM15.135 19.8816L16.1326 19.9514L16.1594 19.5679L15.1619 19.4981L14.1643 19.4282L14.1374 19.8118L15.135 19.8816ZM15.1514 19.4785L15.6431 18.6078L15.6372 18.6045L15.1454 19.4752L14.6537 20.3459L14.6596 20.3493L15.1514 19.4785ZM15.1363 19.4714L15.4081 18.509L15.1142 18.426L14.8424 19.3884L14.5706 20.3508L14.8646 20.4338L15.1363 19.4714ZM15.1454 19.4752L15.6372 18.6045C15.5649 18.5636 15.488 18.5316 15.4081 18.509L15.1363 19.4714L14.8646 20.4338C14.791 20.413 14.7202 20.3835 14.6537 20.3459L15.1454 19.4752ZM15.1601 19.4882L16.0745 19.0834C15.9856 18.8826 15.8343 18.7158 15.6431 18.6078L15.1514 19.4785L14.6596 20.3493C14.4762 20.2457 14.331 20.0857 14.2457 19.893L15.1601 19.4882ZM15.1619 19.4981L16.1594 19.5679C16.171 19.4019 16.1419 19.2355 16.0745 19.0834L15.1601 19.4882L14.2457 19.893C14.1811 19.747 14.1531 19.5875 14.1643 19.4282L15.1619 19.4981ZM15.1316 19.8918L15.9724 20.4332C16.0655 20.2886 16.1206 20.1229 16.1326 19.9514L15.135 19.8816L14.1374 19.8118C14.1489 19.6476 14.2017 19.4889 14.2908 19.3505L15.1316 19.8918ZM15.1223 19.8999L15.534 20.8112C15.7135 20.7301 15.8658 20.5988 15.9724 20.4332L15.1316 19.8918L14.2908 19.3505C14.3929 19.1919 14.5387 19.0662 14.7106 18.9886L15.1223 19.8999ZM15.1081 19.9056L15.3609 20.8731C15.4179 20.8582 15.4735 20.8385 15.5272 20.8143L15.1155 19.9029L14.7038 18.9916C14.7527 18.9696 14.8033 18.9516 14.8552 18.9381L15.1081 19.9056ZM14.7762 19.9906L14.8513 20.9877C14.9176 20.9827 14.9833 20.9718 15.0476 20.955L14.7947 19.9875L14.5419 19.0199C14.594 19.0063 14.6473 18.9974 14.701 18.9934L14.7762 19.9906ZM14.7471 19.987L14.3016 20.8823C14.578 21.0198 14.8374 20.9888 14.8513 20.9877L14.7762 19.9906L14.701 18.9934C14.7117 18.9926 14.7708 18.9878 14.8476 18.9945C14.9284 19.0015 15.0541 19.0228 15.1926 19.0917L14.7471 19.987ZM14.7352 19.9543L13.7399 19.8567C13.7399 19.8567 13.7398 19.8575 13.7398 19.858C13.7397 19.8587 13.7396 19.8598 13.7395 19.861C13.7393 19.8634 13.7389 19.8671 13.7385 19.8715C13.7378 19.8802 13.7367 19.8944 13.7358 19.9117C13.7341 19.9438 13.7324 20.0037 13.7405 20.0777C13.7566 20.2264 13.8234 20.5162 14.094 20.7457L14.7408 19.9829L15.3875 19.2202C15.6503 19.443 15.7138 19.7236 15.7288 19.8622C15.7415 19.9795 15.7273 20.0828 15.7304 20.0519L14.7352 19.9543ZM14.7958 19.3975L13.9993 18.793C13.8829 18.9464 13.8113 19.129 13.7925 19.3207L14.7877 19.4183L15.7829 19.5159C15.7656 19.6924 15.6997 19.8607 15.5924 20.002L14.7958 19.3975ZM14.8023 19.3913L14.299 18.5272C14.1209 18.6309 14.0219 18.7632 13.9993 18.793L14.7958 19.3975L15.5924 20.002C15.5735 20.027 15.4784 20.1548 15.3055 20.2554L14.8023 19.3913ZM16.0379 19.4307L17.0332 19.3331C17.0304 19.3048 17.019 19.1788 16.9606 19.0337C16.8955 18.872 16.7416 18.6162 16.4204 18.4751L16.0183 19.3907L15.6161 20.3063C15.3095 20.1717 15.1647 19.928 15.1053 19.7806C15.0527 19.65 15.0439 19.5408 15.0427 19.5283L16.0379 19.4307ZM16.0872 19.9767L16.9795 20.4281C17.0676 20.254 17.1043 20.0584 17.0852 19.8642L16.09 19.9618L15.0948 20.0594C15.0768 19.8755 15.1115 19.6902 15.1949 19.5253L16.0872 19.9767ZM16.0788 19.9859L16.5266 20.88C16.7926 20.7468 16.9236 20.5386 16.9795 20.4281L16.0872 19.9767L15.1949 19.5253C15.247 19.4224 15.3726 19.2212 15.631 19.0918L16.0788 19.9859ZM15.7071 19.9027L15.2641 20.7992C15.3274 20.8305 15.3938 20.8553 15.4622 20.8732L15.7151 19.9057L15.9679 18.9382C16.0308 18.9546 16.0918 18.9774 16.1501 19.0062L15.7071 19.9027ZM15.6628 19.4883L14.7623 19.0535C14.6845 19.2147 14.6505 19.3935 14.6637 19.572L15.661 19.4981L16.6582 19.4242C16.671 19.5959 16.6382 19.768 16.5634 19.923L15.6628 19.4883ZM15.6707 19.4799L15.1789 18.6091C14.998 18.7113 14.8526 18.8664 14.7623 19.0535L15.6628 19.4883L16.5634 19.923C16.4764 20.1031 16.3366 20.2523 16.1625 20.3506L15.6707 19.4799ZM15.6866 19.4723L15.4135 18.5103C15.334 18.5329 15.2574 18.5648 15.1854 18.6055L15.6772 19.4762L16.169 20.3469C16.1029 20.3842 16.0327 20.4135 15.9598 20.4342L15.6866 19.4723ZM15.9914 19.3876L15.9049 18.3913C15.8355 18.3974 15.7668 18.41 15.6998 18.429L15.9729 19.391L16.2461 20.353C16.1911 20.3686 16.1348 20.3789 16.0779 20.3838L15.9914 19.3876ZM15.9914 19.3876L16.0779 20.3838C16.0628 20.3851 16.0153 20.3891 15.9535 20.386C15.8895 20.3828 15.796 20.3717 15.6888 20.3348L16.0145 19.3893L16.3402 18.4438C16.1228 18.3689 15.9362 18.3886 15.9049 18.3913L15.9914 19.3876ZM15.6021 19.5286L16.5996 19.4583C16.598 19.4356 16.5906 19.3022 16.5318 19.1489C16.465 18.9747 16.2915 18.6802 15.9144 18.5485L15.5846 19.4925L15.2547 20.4365C14.8914 20.3096 14.7261 20.026 14.6644 19.8649C14.6107 19.7249 14.6051 19.6071 14.6045 19.5989L15.6021 19.5286ZM15.6251 19.9054L16.5482 20.29C16.6101 20.1414 16.6364 19.9805 16.6251 19.82L15.6276 19.8903L14.63 19.9606C14.6195 19.8104 14.6441 19.6599 14.702 19.5209L15.6251 19.9054ZM15.6144 19.9192L16.216 20.718C16.3628 20.6074 16.4775 20.4597 16.5482 20.29L15.6251 19.9054L14.702 19.5209C14.7681 19.3621 14.8755 19.2238 15.0129 19.1204L15.6144 19.9192ZM15.5947 19.9314L15.9676 20.8593C16.0541 20.8245 16.1356 20.7785 16.2101 20.7224L15.6085 19.9236L15.007 19.1248C15.073 19.0751 15.1452 19.0343 15.2219 19.0035L15.5947 19.9314ZM15.4262 19.9976L15.6112 20.9804C15.6802 20.9674 15.7478 20.9476 15.8129 20.9214L15.4401 19.9936L15.0672 19.0657C15.1234 19.0431 15.1817 19.0261 15.2412 19.0149L15.4262 19.9976ZM15.2154 19.9246L14.6236 20.7307C14.6947 20.7828 14.772 20.8258 14.8538 20.8587L15.2267 19.9308L15.5995 19.003C15.6734 19.0326 15.7431 19.0714 15.8073 19.1185L15.2154 19.9246ZM15.2002 19.907L14.2858 20.3118C14.3592 20.4776 14.4748 20.6214 14.621 20.7287L15.2128 19.9226L15.8046 19.1166C15.9398 19.2159 16.0467 19.3488 16.1146 19.5022L15.2002 19.907ZM15.197 19.8885L14.1994 19.8184C14.1876 19.9874 14.2172 20.1568 14.2858 20.3118L15.2002 19.907L16.1146 19.5022C16.1781 19.6456 16.2055 19.8023 16.1945 19.9587L15.197 19.8885ZM15.2279 19.5001L14.4118 18.9221C14.3034 19.0753 14.239 19.2553 14.2259 19.4425L15.2234 19.5127L16.2209 19.5829C16.2084 19.761 16.1472 19.9323 16.044 20.078L15.2279 19.5001ZM15.4279 19.5254L15.3156 18.5318C15.3924 18.5231 15.47 18.5249 15.5462 18.5372L15.3869 19.5245L15.2277 20.5117C15.331 20.5284 15.4361 20.5309 15.5401 20.5191L15.4279 19.5254ZM15.4514 19.5209L15.1832 18.5575C15.2266 18.5454 15.2709 18.5368 15.3156 18.5318L15.4279 19.5254L15.5401 20.5191C15.6008 20.5123 15.6608 20.5006 15.7196 20.4842L15.4514 19.5209ZM15.2341 19.4944L14.787 18.5999C14.5766 18.705 14.4596 18.8547 14.4118 18.9221L15.2279 19.5001L16.044 20.078C15.9995 20.1408 15.8864 20.2863 15.6811 20.3889L15.2341 19.4944ZM15.4014 19.9981L15.2525 20.9869C15.3716 21.0048 15.4928 21.0026 15.6112 20.9804L15.4262 19.9976L15.2412 19.0149C15.3432 18.9957 15.4477 18.9938 15.5503 19.0092L15.4014 19.9981ZM15.6942 19.8931L14.8895 20.4868C14.9867 20.6185 15.1139 20.725 15.2605 20.7974L15.7035 19.9009L16.1465 19.0044C16.2858 19.0732 16.4067 19.1744 16.4989 19.2994L15.6942 19.8931ZM15.5635 19.4911L15.4613 18.4964C15.3996 18.5027 15.3385 18.5143 15.2787 18.5309L15.5469 19.4943L15.8151 20.4576C15.7662 20.4713 15.7162 20.4807 15.6657 20.4859L15.5635 19.4911ZM15.3802 19.9925L15.0073 20.9204C15.0855 20.9518 15.1671 20.9741 15.2505 20.9866L15.3994 19.9978L15.5483 19.0089C15.6185 19.0195 15.6872 19.0382 15.753 19.0646L15.3802 19.9925ZM15.6893 19.8798L14.692 19.9537C14.7063 20.1465 14.7748 20.3313 14.8895 20.4868L15.6942 19.8931L16.4989 19.2994C16.6079 19.4472 16.673 19.6227 16.6865 19.8058L15.6893 19.8798ZM15.5635 19.4911L15.6657 20.4859C15.6592 20.4866 15.6172 20.4911 15.5624 20.4905C15.505 20.4899 15.4164 20.4839 15.3124 20.4547L15.5823 19.4918L15.8521 18.5289C15.6466 18.4713 15.4716 18.4953 15.4613 18.4964L15.5635 19.4911Z" fill="#D2908F" mask="url(#path-1-inside-1_2172_79)"/>
<path d="M7.46777 0.5H12.5332C12.9065 0.500087 13.2661 0.605806 13.5605 0.796875C13.8176 0.963727 14.0106 1.18601 14.127 1.43359L14.1719 1.54199L14.5342 2.52051C14.7519 3.10901 15.3129 3.4998 15.9404 3.5H18.8887C19.0666 3.5 19.2283 3.56386 19.3398 3.66406C19.4496 3.76289 19.5 3.88541 19.5 4C19.5 4.11459 19.4496 4.23711 19.3398 4.33594C19.2631 4.4049 19.1625 4.45682 19.0488 4.48242L18.9316 4.49902C18.6594 4.51471 18.4103 4.72677 18.3877 5.03125H18.3867L17.4238 17.1748C17.3749 17.7889 17.0687 18.376 16.5479 18.8125C16.0255 19.2502 15.3291 19.4999 14.5977 19.5H5.40234C4.67094 19.4999 3.97446 19.2502 3.45215 18.8125C2.93132 18.376 2.62508 17.7889 2.57617 17.1748L1.61328 5.03027H1.61133C1.58871 4.7264 1.34136 4.51448 1.06934 4.49902C0.90747 4.48981 0.762611 4.42798 0.660156 4.33594C0.550351 4.23711 0.5 4.11459 0.5 4C0.5 3.88541 0.550351 3.76289 0.660156 3.66406C0.771687 3.56386 0.933439 3.5 1.11133 3.5H4.05957C4.68706 3.4998 5.24807 3.10901 5.46582 2.52051L5.82812 1.54199C5.93578 1.2511 6.14633 0.987653 6.44043 0.796875C6.69806 0.629847 7.00531 0.527749 7.32812 0.504883L7.46777 0.5ZM4.41895 4.5C3.54401 4.50012 2.8549 5.24598 2.92383 6.11816L3.7959 17.1104C3.8271 17.5049 4.02288 17.8615 4.32422 18.1143C4.58663 18.3343 4.91428 18.465 5.25488 18.4941L5.40234 18.5H14.5977C14.99 18.4998 15.3758 18.3659 15.6758 18.1143C15.9771 17.8615 16.1729 17.5049 16.2041 17.1104L17.0762 6.11816C17.1451 5.24598 16.456 4.50012 15.5811 4.5H4.41895ZM12.2227 8.5C12.4006 8.5001 12.5624 8.56376 12.6738 8.66406C12.7836 8.76289 12.833 8.88541 12.833 9V14C12.833 14.1146 12.7836 14.2371 12.6738 14.3359C12.5624 14.4362 12.4006 14.4999 12.2227 14.5C12.0448 14.5 11.883 14.4361 11.7715 14.3359C11.6617 14.2371 11.6113 14.1146 11.6113 14V9C11.6113 8.88541 11.6617 8.76289 11.7715 8.66406C11.883 8.56393 12.0448 8.5 12.2227 8.5ZM7.77734 8.5C7.94142 8.50002 8.0926 8.55511 8.20312 8.64355C8.30889 8.7282 8.36647 8.83412 8.38281 8.9375L8.38867 9.01855V14C8.38836 14.1101 8.34159 14.2266 8.24023 14.3232C8.13717 14.4214 7.98683 14.489 7.81641 14.498C7.6459 14.507 7.48432 14.4559 7.36523 14.3662C7.25078 14.2799 7.18869 14.1685 7.17188 14.0605L7.16699 13.9814V9C7.16699 8.88541 7.21637 8.76289 7.32617 8.66406C7.40974 8.58885 7.52182 8.53451 7.64746 8.51172L7.77734 8.5ZM7.81445 1.5C7.39614 1.50014 7.02212 1.76098 6.87695 2.15332C6.6356 2.8062 7.1184 3.49977 7.81445 3.5H12.1855C12.8816 3.49977 13.3644 2.8062 13.123 2.15332C12.9779 1.76098 12.6039 1.50014 12.1855 1.5H7.81445Z" fill="#D2908F" stroke="#D2908F"/>
</svg>
