<svg width="9" height="10" viewBox="0 0 9 10" fill="none" xmlns="http://www.w3.org/2000/svg">
<path d="M5.40591 3.70348C6.21143 3.47156 6.50259 2.14521 6.26892 1.41273C6.0742 0.80234 5.55051 -0.156639 4.93088 0.0217592C4.12535 0.253676 3.92251 1.47383 4.07242 2.2255C4.2121 2.92584 4.78627 3.88188 5.40591 3.70348ZM3.40411 4.54429C4.02375 4.36589 4.09983 3.54407 3.90511 2.93367C3.65197 2.14016 2.78624 1.12289 1.98071 1.35481C1.36108 1.53321 1.285 2.35503 1.47972 2.96543C1.71742 3.71069 2.58314 4.72796 3.40411 4.54429ZM7.53864 2.06534C6.73311 2.29725 6.52604 3.55673 6.77918 4.35025C6.95443 4.8996 7.37756 5.37773 7.93523 5.21717C8.74076 4.98526 8.94783 3.72577 8.69469 2.93226C8.51944 2.38291 8.03435 1.92262 7.53864 2.06534ZM2.53296 5.5553C2.28467 4.75822 1.31107 3.84019 0.555344 4.06322C-0.0114521 4.23049 -0.0914108 4.85678 0.0804808 5.40861C0.328769 6.20569 1.30237 7.12371 2.0581 6.90069C2.62489 6.73342 2.70485 6.10712 2.53296 5.5553ZM4.79145 5.29086C3.55218 5.64765 2.27548 7.38758 2.70387 8.73045C2.8986 9.34085 3.39077 9.39919 3.88648 9.25647C4.63004 9.04239 5.06546 8.79998 5.74706 8.60374C6.36669 8.42535 7.04653 8.34666 7.72813 8.15042C8.22384 8.00771 8.74252 7.72498 8.52832 7.05355C8.09993 5.71068 6.03072 4.93406 4.79145 5.29086Z" fill="#F16969"/>
</svg>
