<svg width="24" height="21" viewBox="0 0 24 21" fill="none" xmlns="http://www.w3.org/2000/svg">
<path d="M23.967 10.4693L22.208 1.35279C22.165 1.13058 22.0755 0.919208 21.9449 0.73169C21.8143 0.544173 21.6454 0.384469 21.4487 0.2624C21.2519 0.140331 21.0314 0.0584769 20.8007 0.0218721C20.57 -0.0147327 20.334 -0.00531469 20.1072 0.0495469L20.074 0.0588706L14.4477 1.66358H9.55194L3.92561 0.0640504L3.8924 0.0547267C3.66561 -0.000134933 3.42961 -0.0095529 3.19892 0.0270519C2.96823 0.0636567 2.74772 0.14551 2.55095 0.267579C2.35418 0.389649 2.18531 0.549352 2.05473 0.73687C1.92415 0.924388 1.83462 1.13575 1.79163 1.35797L0.0326022 10.4693C-0.0426194 10.8342 0.0132166 11.213 0.190874 11.543C0.368532 11.8731 0.657367 12.1346 1.0096 12.2843C1.23522 12.3842 1.48028 12.4365 1.72843 12.4376C2.02545 12.4374 2.31696 12.3601 2.57259 12.2139V16.5815C2.57259 17.6805 3.02406 18.7346 3.82767 19.5117C4.63128 20.2888 5.72121 20.7254 6.85769 20.7254H17.1419C18.2784 20.7254 19.3683 20.2888 20.1719 19.5117C20.9755 18.7346 21.427 17.6805 21.427 16.5815V12.2149C21.6823 12.361 21.9734 12.4383 22.2701 12.4387C22.5185 12.438 22.764 12.3861 22.99 12.2864C23.3427 12.1366 23.6318 11.8748 23.8095 11.5443C23.9872 11.2138 24.0428 10.8345 23.967 10.4693ZM17.1419 19.0678H12.8568V17.7532L14.3202 16.3391C14.481 16.1836 14.5713 15.9727 14.5713 15.7527C14.5713 15.5328 14.481 15.3219 14.3202 15.1664C14.1594 15.0109 13.9413 14.9235 13.7138 14.9235C13.4864 14.9235 13.2683 15.0109 13.1075 15.1664L11.9998 16.2386L10.8921 15.1664C10.7313 15.0109 10.5132 14.9235 10.2858 14.9235C10.0583 14.9235 9.84023 15.0109 9.67942 15.1664C9.51861 15.3219 9.42827 15.5328 9.42827 15.7527C9.42827 15.9727 9.51861 16.1836 9.67942 16.3391L11.1428 17.7532V19.0678H6.85769C6.1758 19.0678 5.52184 18.8059 5.03968 18.3396C4.55751 17.8733 4.28663 17.2409 4.28663 16.5815V10.2735L9.84976 3.32113H14.1498L19.713 10.2735V16.5815C19.713 17.2409 19.4421 17.8733 18.9599 18.3396C18.4778 18.8059 17.8238 19.0678 17.1419 19.0678ZM9.42875 12.0233C9.42875 12.2691 9.35335 12.5095 9.2121 12.7139C9.07084 12.9184 8.87007 13.0777 8.63517 13.1718C8.40027 13.2659 8.14179 13.2905 7.89242 13.2425C7.64305 13.1946 7.41399 13.0762 7.23421 12.9023C7.05443 12.7284 6.93199 12.5069 6.88239 12.2658C6.83279 12.0246 6.85824 11.7747 6.95554 11.5475C7.05284 11.3204 7.21761 11.1262 7.42902 10.9896C7.64042 10.853 7.88896 10.7801 8.14322 10.7801C8.48416 10.7801 8.81114 10.9111 9.05222 11.1442C9.29331 11.3774 9.42875 11.6936 9.42875 12.0233ZM17.1419 12.0233C17.1419 12.2691 17.0665 12.5095 16.9253 12.7139C16.784 12.9184 16.5832 13.0777 16.3483 13.1718C16.1134 13.2659 15.855 13.2905 15.6056 13.2425C15.3562 13.1946 15.1272 13.0762 14.9474 12.9023C14.7676 12.7284 14.6452 12.5069 14.5956 12.2658C14.546 12.0246 14.5714 11.7747 14.6687 11.5475C14.766 11.3204 14.9308 11.1262 15.1422 10.9896C15.3536 10.853 15.6021 10.7801 15.8564 10.7801C16.1973 10.7801 16.5243 10.9111 16.7654 11.1442C17.0065 11.3774 17.1419 11.6936 17.1419 12.0233Z" fill="#A2A2A2"/>
</svg>
