<svg width="24" height="24" viewBox="0 0 24 24" fill="none" xmlns="http://www.w3.org/2000/svg">
<path fill-rule="evenodd" clip-rule="evenodd" d="M10.723 3.19991C10.776 3.00816 10.7507 2.80319 10.6527 2.63009C10.5546 2.457 10.3918 2.32995 10.2 2.27691C10.0082 2.22387 9.80328 2.24917 9.63018 2.34725C9.45709 2.44533 9.33004 2.60816 9.277 2.79991L7.763 8.24991H4C3.80109 8.24991 3.61032 8.32893 3.46967 8.46958C3.32902 8.61023 3.25 8.801 3.25 8.99991C3.25 9.19882 3.32902 9.38959 3.46967 9.53024C3.61032 9.67089 3.80109 9.74991 4 9.74991H7.347L5.819 15.2499H2C1.80109 15.2499 1.61032 15.3289 1.46967 15.4696C1.32902 15.6102 1.25 15.801 1.25 15.9999C1.25 16.1988 1.32902 16.3896 1.46967 16.5302C1.61032 16.6709 1.80109 16.7499 2 16.7499H5.402L4.277 20.7999C4.22396 20.9917 4.24926 21.1966 4.34734 21.3697C4.44542 21.5428 4.60825 21.6699 4.8 21.7229C4.99175 21.776 5.19672 21.7507 5.36982 21.6526C5.54291 21.5545 5.66996 21.3917 5.723 21.1999L6.959 16.7499H14.402L13.277 20.7999C13.224 20.9917 13.2493 21.1966 13.3473 21.3697C13.4454 21.5428 13.6082 21.6699 13.8 21.7229C13.9918 21.776 14.1967 21.7507 14.3698 21.6526C14.5429 21.5545 14.67 21.3917 14.723 21.1999L15.959 16.7499H20C20.1989 16.7499 20.3897 16.6709 20.5303 16.5302C20.671 16.3896 20.75 16.1988 20.75 15.9999C20.75 15.801 20.671 15.6102 20.5303 15.4696C20.3897 15.3289 20.1989 15.2499 20 15.2499H16.376L17.903 9.74991H22C22.1989 9.74991 22.3897 9.67089 22.5303 9.53024C22.671 9.38959 22.75 9.19882 22.75 8.99991C22.75 8.801 22.671 8.61023 22.5303 8.46958C22.3897 8.32893 22.1989 8.24991 22 8.24991H18.32L19.723 3.19991C19.7493 3.10496 19.7566 3.00578 19.7445 2.90801C19.7324 2.81024 19.7012 2.7158 19.6527 2.63009C19.6041 2.54439 19.5391 2.46908 19.4615 2.40848C19.3838 2.34788 19.2949 2.30317 19.2 2.27691C19.1051 2.25065 19.0059 2.24334 18.9081 2.25541C18.8103 2.26748 18.7159 2.29869 18.6302 2.34725C18.5445 2.39582 18.4692 2.46079 18.4086 2.53845C18.348 2.61612 18.3033 2.70496 18.277 2.79991L16.763 8.24991H9.32L10.723 3.19991ZM14.819 15.2499L16.347 9.74991H8.903L7.376 15.2499H14.819Z" fill="#A8AFB9"/>
</svg>
