<svg width="80" height="80" viewBox="0 0 80 80" fill="none" xmlns="http://www.w3.org/2000/svg">
<rect width="80" height="80" rx="10" fill="#5BC4BE" fill-opacity="0.47"/>
<path d="M59.4141 50.3691C58.8812 50.3692 58.3473 50.5468 57.9346 50.8965C57.5175 51.25 57.249 51.7632 57.249 52.334C57.2491 52.9047 57.5176 53.4171 57.9346 53.7705C58.3473 54.1203 58.8811 54.2987 59.4141 54.2988C59.9471 54.2988 60.4817 54.1204 60.8945 53.7705C61.3115 53.4171 61.58 52.9046 61.5801 52.334C61.5801 51.7632 61.3116 51.25 60.8945 50.8965C60.4817 50.5467 59.9471 50.3691 59.4141 50.3691ZM27.375 45.6514L26.707 45.5049C20.9975 44.2516 16.8496 40.3252 16.8496 35.6094V24.46C16.8496 23.5523 17.2744 22.647 18.0908 21.9551C18.9116 21.2595 20.0512 20.8496 21.2627 20.8496H23.8936C24.4071 20.8496 24.8768 21.0244 25.2041 21.3018C25.527 21.5754 25.6747 21.9133 25.6748 22.2295C25.6748 22.5458 25.5272 22.8844 25.2041 23.1582C24.8768 23.4355 24.4071 23.6094 23.8936 23.6094H20.4121V35.6094C20.4121 37.6641 21.546 39.5668 23.332 40.9268C25.1236 42.2909 27.6118 43.1494 30.4717 43.1494C33.3314 43.1494 35.8188 42.2908 37.6104 40.9268C39.3965 39.5667 40.5303 37.6642 40.5303 35.6094V23.6094H37.0498C36.5361 23.6094 36.0656 23.4356 35.7383 23.1582C35.4153 22.8844 35.2686 22.5457 35.2686 22.2295C35.2687 21.9134 35.4155 21.5754 35.7383 21.3018C36.0656 21.0244 36.5361 20.8496 37.0498 20.8496H39.6807C40.8922 20.8496 42.0318 21.2595 42.8525 21.9551C43.6688 22.647 44.0928 23.5524 44.0928 24.46V35.6094C44.0928 40.3251 39.9457 44.2516 34.2363 45.5049L33.5684 45.6514V48.9893C33.5683 49.2013 33.5028 49.4201 33.3633 49.625C33.2225 49.8317 33.0085 50.0197 32.7295 50.1562L32.2529 50.3896V51.5566C32.29 52.9092 32.95 54.1605 34.0322 55.0566C35.1107 55.9496 36.534 56.4326 37.9932 56.4326C39.4522 56.4325 40.8748 55.9496 41.9531 55.0566C43.0354 54.1605 43.6954 52.9092 43.7324 51.5566V49.3057C43.7372 47.5962 44.4702 45.9189 45.8408 44.5889C47.2148 43.2557 49.1341 42.3686 51.2549 42.1201C53.3754 41.8718 55.522 42.2832 57.2949 43.2637C59.0668 44.2436 60.3251 45.7123 60.8818 47.3711L61.0205 47.7832L61.4355 47.9121C62.7235 48.3127 63.7729 49.0751 64.4229 50.0342C65.0691 50.9878 65.2878 52.0832 65.0664 53.1367C64.8439 54.1945 64.1815 55.1855 63.1514 55.916C62.1191 56.6478 60.7962 57.0599 59.415 57.0586H59.4141C58.1138 57.0589 56.863 56.6924 55.8574 56.0342C54.8529 55.3766 54.1624 54.475 53.8594 53.4902C53.5579 52.5101 53.6462 51.4729 54.1201 50.5303C54.5967 49.5826 55.4467 48.7666 56.5654 48.2363L57.4639 47.8105L56.9043 46.9893C56.3159 46.126 55.426 45.4769 54.3945 45.1152C53.363 44.7536 52.2258 44.6912 51.1533 44.9355C50.0812 45.1798 49.1104 45.7224 48.4043 46.5039C47.74 47.2393 47.3452 48.1498 47.2998 49.1113L47.2949 49.3037V51.5176C47.2571 53.5037 46.3004 55.4331 44.5703 56.876C42.8362 58.3221 40.4752 59.1503 37.9932 59.1504C35.5109 59.1504 33.1493 58.3222 31.415 56.876C29.7929 55.5232 28.8506 53.7426 28.708 51.8887L28.6904 51.5176V50.3896L28.2139 50.1562C27.9348 50.0197 27.7209 49.8317 27.5801 49.625C27.4405 49.4201 27.3751 49.2014 27.375 48.9893V45.6514Z" stroke="#5BC4BE" stroke-width="1.7"/>
</svg>
