<svg width="37" height="33" viewBox="0 0 37 33" fill="none" xmlns="http://www.w3.org/2000/svg">
<path d="M0.75 17.3325H6C7.1095 17.3325 7.6625 17.3325 8.1595 17.5201C8.65475 17.7092 9.03625 18.0641 9.801 18.7756L11.7995 20.634C12.4715 21.2587 12.8075 21.5718 13.217 21.5485C13.6265 21.5222 13.9117 21.1734 14.484 20.4744L20.8365 12.7089C21.4315 11.9804 21.729 11.6177 22.149 11.6006C22.569 11.5851 22.9033 11.9215 23.5718 12.5973L26.6815 15.7438C27.4533 16.5265 27.84 16.9171 28.3562 17.1248C28.8742 17.3325 29.4588 17.3325 30.6313 17.3325H35.75" stroke="#A2A2A2" stroke-width="1.5" stroke-linecap="round"/>
<path d="M35.75 16.25C35.75 23.5567 35.75 27.21 33.1862 29.4792C30.626 31.75 26.4995 31.75 18.25 31.75C10.0005 31.75 5.87575 31.75 3.312 29.4792C0.75 27.2116 0.75 23.5567 0.75 16.25C0.75 8.9433 0.75 5.28995 3.312 3.0192C5.8775 0.75 10.0005 0.75 18.25 0.75C26.4995 0.75 30.6242 0.75 33.1862 3.0192C34.8907 4.5289 35.4612 6.65085 35.6537 10.05" stroke="#A2A2A2" stroke-width="1.5" stroke-linecap="round"/>
</svg>
