<svg width="18" height="16" viewBox="0 0 18 16" fill="none" xmlns="http://www.w3.org/2000/svg">
<g clip-path="url(#clip0_2449_69)">
<path d="M16.3125 14.8571H1.6875C0.75375 14.8571 0 14.0914 0 13.1428V2.85711C0 1.90854 0.75375 1.14282 1.6875 1.14282H16.3125C17.2462 1.14282 18 1.90854 18 2.85711V13.1428C18 14.0914 17.2462 14.8571 16.3125 14.8571ZM1.6875 2.28568C1.3725 2.28568 1.125 2.53711 1.125 2.85711V13.1428C1.125 13.4628 1.3725 13.7143 1.6875 13.7143H16.3125C16.6275 13.7143 16.875 13.4628 16.875 13.1428V2.85711C16.875 2.53711 16.6275 2.28568 16.3125 2.28568H1.6875Z" fill="#A8AFB9" stroke="#A2A2A2" stroke-width="0.5"/>
<path d="M8.99997 10.2399C8.21247 10.2399 7.49247 9.91994 6.95247 9.33709L1.04622 2.95994C0.832475 2.73137 0.843725 2.36566 1.06872 2.14852C1.29372 1.93137 1.65372 1.9428 1.86747 2.17137L7.77372 8.54851C8.41497 9.24566 9.58498 9.24566 10.2262 8.54851L16.1325 2.1828C16.3462 1.95423 16.7062 1.9428 16.9312 2.15994C17.1562 2.37709 17.1675 2.7428 16.9537 2.97137L11.0475 9.34852C10.5075 9.93137 9.78747 10.2514 8.99997 10.2514V10.2399Z" fill="#A8AFB9" stroke="#A2A2A2" stroke-width="0.5"/>
</g>
<defs>
<clipPath id="clip0_2449_69">
<rect width="18" height="16" fill="white"/>
</clipPath>
</defs>
</svg>
