<svg width="9" height="10" viewBox="0 0 9 10" fill="none" xmlns="http://www.w3.org/2000/svg">
<path d="M5.40585 3.70351C6.21138 3.47159 6.50253 2.14522 6.26886 1.41274C6.07414 0.802341 5.55045 -0.156647 4.93081 0.0217505C4.12528 0.253668 3.92244 1.47384 4.07236 2.22551C4.21204 2.92585 4.78622 3.8819 5.40585 3.70351ZM3.40406 4.54432C4.02369 4.36592 4.09977 3.54409 3.90505 2.93369C3.6519 2.14017 2.78617 1.12289 1.98065 1.3548C1.36101 1.5332 1.28493 2.35503 1.47966 2.96543C1.71736 3.7107 2.58309 4.72798 3.40406 4.54432ZM7.53858 2.06535C6.73305 2.29727 6.52599 3.55676 6.77913 4.35028C6.95438 4.89964 7.37751 5.37778 7.93518 5.21722C8.74071 4.9853 8.94777 3.72581 8.69463 2.93229C8.51938 2.38293 8.03429 1.92263 7.53858 2.06535ZM2.53291 5.55533C2.28462 4.75824 1.31101 3.84021 0.555285 4.06323C-0.0115111 4.2305 -0.0914683 4.8568 0.0804251 5.40863C0.328716 6.20572 1.30232 7.12376 2.05805 6.90073C2.62484 6.73346 2.7048 6.10716 2.53291 5.55533ZM4.7914 5.2909C3.55213 5.64769 2.27544 7.38763 2.70383 8.73052C2.89856 9.34092 3.39073 9.39926 3.88644 9.25654C4.63 9.04246 5.06542 8.80005 5.74702 8.60381C6.36665 8.42542 7.04649 8.34673 7.72809 8.1505C8.2238 8.00778 8.74247 7.72505 8.52828 7.05361C8.09988 5.71073 6.03067 4.9341 4.7914 5.2909Z" fill="#5BC4BE"/>
</svg>
