<svg width="28" height="28" viewBox="0 0 28 28" fill="none" xmlns="http://www.w3.org/2000/svg">
<path d="M7.89101 15.413C7.68384 14.4858 7.68754 13.5239 7.90185 12.5983C8.11616 11.6728 8.53559 10.8073 9.12914 10.0658C9.72268 9.32435 10.4752 8.72585 11.331 8.31457C12.1868 7.9033 13.124 7.68977 14.0733 7.68977C15.0227 7.68977 15.9599 7.9033 16.8157 8.31457C17.6715 8.72585 18.424 9.32435 19.0175 10.0658C19.6111 10.8073 20.0305 11.6728 20.2448 12.5983C20.4591 13.5239 20.4628 14.4858 20.2557 15.413H24.627C24.8144 15.413 24.9942 15.4875 25.1268 15.6201C25.2594 15.7528 25.3338 15.9327 25.3338 16.1203C25.3338 16.308 25.2594 16.4879 25.1268 16.6206C24.9942 16.7532 24.8144 16.8277 24.627 16.8277H3.42074C3.23327 16.8277 3.05347 16.7532 2.92091 16.6206C2.78834 16.4879 2.71387 16.308 2.71387 16.1203C2.71387 15.9327 2.78834 15.7528 2.92091 15.6201C3.05347 15.4875 3.23327 15.413 3.42074 15.413H7.89101ZM14.2147 25.3165C14.1123 25.3396 14.0061 25.3396 13.9037 25.3165H14.2147ZM7.06256 6.04984L6.96501 5.96778C6.81987 5.8669 6.64224 5.82407 6.46711 5.84775C6.29199 5.87143 6.13208 5.95989 6.01889 6.09571C5.90571 6.23152 5.84747 6.40483 5.85564 6.58149C5.86381 6.75814 5.9378 6.92533 6.06304 7.0501L7.27603 8.264L7.375 8.34605C7.52013 8.44694 7.69777 8.48976 7.87289 8.46608C8.04802 8.44241 8.20793 8.35394 8.32111 8.21813C8.43429 8.08232 8.49254 7.90901 8.48437 7.73235C8.4762 7.55569 8.4022 7.3885 8.27697 7.26373L7.06256 6.04984ZM22.1374 6.95107C22.2366 6.80575 22.2781 6.62864 22.2538 6.45433C22.2295 6.28003 22.1411 6.12105 22.006 6.00843C21.8708 5.89582 21.6986 5.83766 21.5229 5.84531C21.3472 5.85297 21.1807 5.9259 21.0558 6.04984L19.8414 7.26373L19.7594 7.36277C19.6602 7.50809 19.6187 7.6852 19.643 7.8595C19.6673 8.03381 19.7557 8.19279 19.8908 8.30541C20.0259 8.41802 20.1982 8.47618 20.3739 8.46852C20.5496 8.46086 20.7161 8.38794 20.841 8.264L22.0554 7.0501L22.1374 6.95107ZM14.759 3.29524C14.7275 3.12129 14.6321 2.96544 14.4916 2.85838C14.351 2.75131 14.1755 2.70079 13.9996 2.71676C13.8236 2.73273 13.6601 2.81404 13.5411 2.94467C13.4221 3.07531 13.3562 3.2458 13.3566 3.42257V5.13871L13.3679 5.26605C13.3993 5.43999 13.4948 5.59584 13.6353 5.70291C13.7759 5.80997 13.9514 5.86049 14.1273 5.84452C14.3032 5.82855 14.4668 5.74724 14.5858 5.61661C14.7048 5.48598 14.7706 5.31549 14.7703 5.13871V3.42115L14.759 3.29524ZM11.9032 22.4869C11.7158 22.4869 11.536 22.5615 11.4034 22.6941C11.2708 22.8268 11.1964 23.0067 11.1964 23.1943C11.1964 23.3819 11.2708 23.5619 11.4034 23.6945C11.536 23.8272 11.7158 23.9017 11.9032 23.9017H16.1445C16.332 23.9017 16.5117 23.8272 16.6443 23.6945C16.7769 23.5619 16.8514 23.3819 16.8514 23.1943C16.8514 23.0067 16.7769 22.8268 16.6443 22.6941C16.5117 22.5615 16.332 22.4869 16.1445 22.4869H11.9032ZM6.95511 19.6573C6.95511 19.4697 7.02959 19.2898 7.16215 19.1571C7.29472 19.0245 7.47451 18.9499 7.66199 18.9499H20.3857C20.5732 18.9499 20.753 19.0245 20.8856 19.1571C21.0181 19.2898 21.0926 19.4697 21.0926 19.6573C21.0926 19.8449 21.0181 20.0249 20.8856 20.1575C20.753 20.2902 20.5732 20.3647 20.3857 20.3647H7.66199C7.47451 20.3647 7.29472 20.2902 7.16215 20.1575C7.02959 20.0249 6.95511 19.8449 6.95511 19.6573Z" fill="#5BC4BE"/>
</svg>
