<svg width="15" height="13" viewBox="0 0 15 13" fill="none" xmlns="http://www.w3.org/2000/svg">
<path d="M13.1895 0.5C13.2324 0.500022 13.2897 0.517531 13.3447 0.580078L14.4053 1.78613C14.5316 1.93027 14.5318 2.187 14.4053 2.33105L5.78027 12.1357C5.72519 12.1984 5.66793 12.2158 5.625 12.2158C5.58207 12.2158 5.52479 12.1983 5.46973 12.1357L0.594727 6.59375C0.468293 6.44969 0.468252 6.19295 0.594727 6.04883L1.65527 4.84277C1.7103 4.78021 1.76763 4.76272 1.81055 4.7627C1.85348 4.7627 1.91076 4.78017 1.96582 4.84277L5.25 8.57617L5.625 9.00293L6 8.57617L13.0342 0.580078C13.0892 0.51749 13.1465 0.5 13.1895 0.5Z" fill="white" stroke="#1695C7"/>
</svg>
