<svg width="83" height="75" viewBox="0 0 83 75" fill="none" xmlns="http://www.w3.org/2000/svg">
<path d="M50 53H80M65 38V68" stroke="#A2A2A2" stroke-width="5" stroke-linecap="round"/>
<path d="M44.2141 27.093C46.2764 27.7025 48.4784 29.6709 50.0038 32.2205C51.5251 34.7634 52.308 37.7753 51.6692 40.4049C51.3618 41.67 50.7597 42.2001 50.1029 42.4065C49.4006 42.627 48.5379 42.5084 47.6748 42.2534C46.4758 41.899 45.3311 41.4439 44.1913 40.9869C43.0589 40.5329 41.9255 40.0752 40.7848 39.7381C39.5315 39.3677 38.4454 39.1692 37.3584 38.9676C36.27 38.7656 35.1749 38.5592 33.8658 38.1724C33.0311 37.9257 32.367 37.5357 31.9742 36.9807C31.5956 36.4457 31.4066 35.6684 31.6904 34.5005C32.329 31.8717 34.3796 29.6969 36.8588 28.3357C39.3442 26.9712 42.1514 26.4836 44.2141 27.093ZM58.908 21.462C59.568 21.6572 60.0575 22.2516 60.3206 23.1589C60.5832 24.0646 60.5885 25.2003 60.3274 26.2753C59.9457 27.8462 59.0069 29.5978 57.8213 30.8439C56.6171 32.1094 55.2873 32.7303 54.1063 32.3812C53.323 32.1498 52.8443 31.5441 52.6134 30.6717C52.3781 29.7819 52.4205 28.6607 52.686 27.5677C53.0676 25.9966 54.0074 24.2454 55.193 22.9993C56.3972 21.7338 57.727 21.1129 58.908 21.462ZM33.8332 13.9997C34.9257 14.3136 35.8144 15.5772 36.3219 17.3572C36.8192 19.1017 36.8875 21.1477 36.4984 22.7084C36.2259 23.8013 35.7438 24.797 35.122 25.4404C34.512 26.0716 33.8013 26.3393 32.9927 26.1069C31.9002 25.793 31.0115 24.5293 30.5041 22.7494C30.0067 21.0047 29.9386 18.9581 30.3278 17.3972C30.6003 16.3044 31.0825 15.3085 31.7042 14.6652C32.3141 14.0342 33.0247 13.7673 33.8332 13.9997ZM43.5007 7.44149C44.6615 7.78454 45.471 9.07588 45.874 10.8941C46.269 12.6768 46.2208 14.7676 45.8364 16.3499C45.5416 17.5627 44.9538 18.8045 44.197 19.652C43.4421 20.4975 42.6027 20.8706 41.7498 20.6273C40.5955 20.1899 39.7967 18.8311 39.3951 17.0195C38.9992 15.2326 39.0369 13.193 39.3959 11.7156C39.6905 10.5026 40.2786 9.26016 41.0355 8.41249C41.7956 7.56127 42.6417 7.18785 43.5007 7.44149ZM55.0635 8.87738C55.4496 8.99158 55.7463 9.26931 55.9723 9.72266C56.2041 10.1876 56.3451 10.8107 56.4037 11.5334C56.5205 12.9761 56.2983 14.6692 55.9972 15.9088C55.6513 17.3326 54.6427 19.0337 53.3645 20.2712C52.0652 21.529 50.6374 22.1716 49.4507 21.821C49.0644 21.7069 48.7568 21.4227 48.5208 20.9553C48.28 20.4784 48.13 19.8378 48.0733 19.095C47.96 17.6099 48.2281 15.8554 48.6892 14.5394C49.1834 13.1292 50.1615 11.4895 51.3544 10.3158C52.5654 9.12458 53.8746 8.52602 55.0635 8.87738Z" fill="#A2A2A2" stroke="#A2A2A2"/>
<path d="M20.608 53.7031C22.6703 53.0938 25.4688 53.5843 27.9455 54.9511C30.4158 56.3143 32.4591 58.4909 33.098 61.1206C33.4054 62.3858 33.1245 63.1778 32.6491 63.7187C32.141 64.2967 31.3405 64.6689 30.4777 64.9239C29.2785 65.2783 28.0802 65.5156 26.8858 65.7484C25.6995 65.9797 24.511 66.2082 23.3705 66.5452C22.1172 66.9156 21.0866 67.3427 20.0539 67.7675C19.0195 68.1929 17.9771 68.6182 16.6677 69.0052C15.833 69.2519 15.0811 69.2804 14.4893 69.0164C13.919 68.7617 13.4029 68.1927 13.1192 67.025C12.4806 64.3962 13.2716 61.3825 14.8016 58.8365C16.3355 56.284 18.5452 54.3127 20.608 53.7031ZM30.7796 40.7235C31.4397 40.5285 32.133 40.7734 32.7722 41.4141C33.4102 42.0536 33.9305 43.034 34.1917 44.1089C34.5734 45.6799 34.5534 47.7148 34.0915 49.4477C33.6224 51.2078 32.7522 52.4788 31.5712 52.8279C30.788 53.0592 30.0987 52.7989 29.5034 52.1707C28.8962 51.5298 28.4246 50.5355 28.159 49.4424C27.7774 47.8714 27.7973 45.8365 28.2592 44.1036C28.7284 42.3435 29.5985 41.0725 30.7796 40.7235ZM5.68125 48.089C6.76972 47.7584 8.11217 48.3626 9.35861 49.6243C10.5801 50.8608 11.5667 52.595 11.9373 54.1612C12.1968 55.2578 12.2315 56.3859 11.9848 57.2859C11.7426 58.1691 11.2476 58.793 10.442 59.0377C9.3536 59.3681 8.01189 58.7636 6.76557 57.5021C5.54387 56.2655 4.55626 54.5309 4.18567 52.9645C3.92631 51.868 3.89272 50.7403 4.13938 49.8404C4.38151 48.9574 4.87573 48.3337 5.68125 48.089ZM11.0814 37.0778C12.2422 36.7349 13.528 37.4079 14.7012 38.7603C15.8514 40.0863 16.7573 41.9227 17.1417 43.5049C17.4363 44.7178 17.4901 46.1174 17.2189 47.2687C16.9484 48.4173 16.3908 49.2033 15.5417 49.4629C14.3438 49.7206 13.036 48.9845 11.867 47.637C10.714 46.3079 9.82207 44.5207 9.46321 43.0433C9.16853 41.8303 9.11455 40.43 9.38573 39.2785C9.65819 38.122 10.2223 37.3317 11.0814 37.0778ZM21.7451 31.9451C22.1313 31.8309 22.5141 31.908 22.9154 32.1759C23.3269 32.4507 23.7324 32.9123 24.1107 33.5059C24.866 34.691 25.4404 36.2809 25.7415 37.5205C26.0873 38.9442 25.9848 40.9729 25.4389 42.7493C24.8839 44.5552 23.9388 45.8991 22.7521 46.2499C22.3658 46.364 21.9706 46.2877 21.5542 46.0129C21.1296 45.7327 20.7102 45.2603 20.3244 44.6484C19.553 43.4247 18.9888 41.7577 18.7916 40.3637C18.5804 38.8699 18.684 36.9105 19.1851 35.2362C19.6938 33.5368 20.5562 32.2964 21.7451 31.9451Z" fill="#A2A2A2" stroke="#A2A2A2"/>
</svg>
