<svg width="64" height="64" viewBox="0 0 64 64" fill="none" xmlns="http://www.w3.org/2000/svg">
<path d="M22.3584 41.8558C25.0549 41.1332 26.2679 36.5115 25.639 33.9144C25.115 31.7502 23.5748 28.3253 21.5005 28.8811C18.804 29.6036 17.9021 33.8627 18.2516 36.5176C18.5771 38.9913 20.2841 42.4116 22.3584 41.8558ZM15.6066 44.5795C17.6808 44.0237 18.0889 41.1482 17.5649 38.9839C16.8836 36.1705 14.2285 32.5022 11.5319 33.2248C9.45769 33.7805 9.0496 36.6561 9.57363 38.8203C10.2133 41.4627 12.8684 45.1309 15.6066 44.5795ZM29.6942 36.3487C26.9977 37.0712 26.0744 41.4678 26.7556 44.2813C27.2272 46.2291 28.5286 47.9551 30.3955 47.4548C33.092 46.7323 34.0153 42.3357 33.334 39.5222C32.8624 37.5744 31.3536 35.9041 29.6942 36.3487ZM12.5446 48.0287C11.88 45.2033 8.85063 41.8711 6.31975 42.5681C4.42159 43.0908 4.03823 45.2797 4.49832 47.2358C5.1629 50.0612 8.19225 53.3934 10.7231 52.6964C12.6213 52.1737 13.0046 49.9848 12.5446 48.0287ZM20.031 47.3569C15.8825 48.4685 11.3455 54.4298 12.4983 59.1911C13.0224 61.3553 14.6316 61.6159 16.291 61.1713C18.7801 60.5043 20.2601 59.703 22.5418 59.0916C24.6161 58.5358 26.8694 58.3368 29.1511 57.7254C30.8105 57.2808 32.5724 56.3474 31.9959 53.9668C30.8431 49.2055 24.1795 46.2453 20.031 47.3569Z" fill="#A2A2A2" stroke="#A2A2A2"/>
<path d="M50.7215 17.592C53.4181 18.3145 56.585 14.8663 57.2138 12.2693C57.7378 10.1051 57.9427 6.32239 55.8684 5.76659C53.1719 5.04406 50.4431 8.33029 49.5426 10.8376C48.7036 13.1736 48.6473 17.0362 50.7215 17.592ZM43.5538 16.5859C45.6281 17.1417 47.2941 14.822 47.8181 12.6578C48.4993 9.84427 47.8358 5.28682 45.1393 4.56429C43.065 4.00849 41.399 6.32824 40.875 8.49246C40.235 11.1348 40.8985 15.6922 43.5538 16.5859ZM59.6678 16.4477C56.9713 15.7251 54.1611 19.1213 53.4799 21.9348C53.0083 23.8826 53.3662 26.0532 55.2331 26.5534C57.9296 27.2759 60.7397 23.8797 61.421 21.0663C61.8926 19.1185 61.3272 16.8923 59.6678 16.4477ZM39.2963 18.0739C39.9976 15.2583 38.8527 10.8077 36.3133 10.1461C34.4087 9.64985 33.0767 11.3791 32.5911 13.3283C31.8899 16.144 33.0348 20.5946 35.5742 21.2562C37.4788 21.7524 38.8108 20.0232 39.2963 18.0739ZM46.1761 21.2515C42.0275 20.1399 35.3324 23.0916 34.1796 27.8529C33.6556 30.0171 34.9502 31.0558 36.6096 31.5004C39.0988 32.1673 40.7629 32.2085 43.0445 32.8199C45.1188 33.3757 47.1881 34.3349 49.4698 34.9462C51.1292 35.3909 53.1008 35.4579 53.6772 33.0773C54.83 28.316 50.3246 22.3631 46.1761 21.2515Z" fill="#A2A2A2" stroke="#A2A2A2"/>
</svg>
