<svg width="80" height="80" viewBox="0 0 80 80" fill="none" xmlns="http://www.w3.org/2000/svg">
<rect width="80" height="80" rx="10" fill="#B1D5F3"/>
<path d="M39.9339 46.2462C45.6153 46.2306 50.4461 49.0132 52.2217 55.0028C48.6427 57.3302 44.43 58.2266 39.9339 58.2148C35.4381 58.2266 31.2253 57.3302 27.6462 55.0028C29.4239 49.0066 34.2465 46.2306 39.9339 46.2462Z" stroke="#43A3F1" stroke-width="1.5" stroke-linecap="square"/>
<path d="M29.8334 44.5459C25.8502 44.5349 22.4634 46.4857 21.2185 50.6851C22.5773 51.5687 24.0664 52.1581 25.6467 52.5115" stroke="#43A3F1" stroke-width="1.5" stroke-linecap="square"/>
<path d="M50.104 44.5459C54.0873 44.5349 57.4741 46.4857 58.7189 50.6851C57.3601 51.5687 55.8709 52.1581 54.2907 52.5115" stroke="#43A3F1" stroke-width="1.5" stroke-linecap="square"/>
<path d="M47.6531 31.982C47.6531 36.5091 44.2125 40.179 39.9685 40.179C35.7244 40.179 32.2839 36.5091 32.2839 31.982C32.2839 27.455 35.7244 23.7852 39.9685 23.7852C44.2125 23.7852 47.6531 27.455 47.6531 31.982Z" stroke="#43A3F1" stroke-width="1.5" stroke-linecap="square"/>
<path d="M48.3743 29.1012C48.9173 28.9054 49.499 28.7993 50.104 28.7993C53.0864 28.7993 55.504 31.3781 55.504 34.5593C55.504 37.7404 53.0864 40.3192 50.104 40.3192C48.6547 40.3192 47.3386 39.7102 46.3687 38.7188" stroke="#43A3F1" stroke-width="1.5" stroke-linecap="square"/>
<path d="M31.0632 28.9494C30.6682 28.8512 30.2564 28.7993 29.8333 28.7993C26.851 28.7993 24.4333 31.3781 24.4333 34.5593C24.4333 37.7404 26.851 40.3192 29.8333 40.3192C31.1331 40.3192 32.3256 39.8294 33.2575 39.0134" stroke="#43A3F1" stroke-width="1.5" stroke-linecap="square"/>
</svg>
