<svg width="24" height="24" viewBox="0 0 24 24" fill="none" xmlns="http://www.w3.org/2000/svg">
<path d="M1 9.61538L5.123 5.00692M23 9.61538L18.871 5M1 15.3846L3.0645 17.6923L5.129 20M23 15.3846L18.871 20M21 20H3C1.89543 20 1 19.1046 1 18V7C1 5.89543 1.89543 5 3 5H21C22.1046 5 23 5.89543 23 7V18C23 19.1046 22.1046 20 21 20Z" stroke="#5F89CD" stroke-width="1.5" stroke-miterlimit="10" stroke-linecap="round" stroke-linejoin="round"/>
<path d="M13.5 9.03837H10.9989C10.3807 9.03837 9.80952 9.36804 9.50028 9.90327C9.19074 10.439 9.19074 11.0993 9.50028 11.635C9.80952 12.1702 10.3807 12.4999 10.9989 12.4999H12.0011C12.6193 12.4999 13.1905 12.8296 13.4997 13.3648C13.8093 13.9006 13.8093 14.5608 13.4997 15.0965C13.1905 15.6318 12.6193 15.9614 12.0011 15.9614H9.5M11.5 9.03837V7.88452M11.5 17.1153V15.9614" stroke="#5F89CD" stroke-width="1.5" stroke-miterlimit="10" stroke-linecap="round" stroke-linejoin="round"/>
</svg>
